<?xml version="1.0" encoding="utf-8"?>
<!-- Generator: Adobe Illustrator 16.0.0, SVG Export Plug-In . SVG Version: 6.00 Build 0)  -->
<!DOCTYPE svg PUBLIC "-//W3C//DTD SVG 1.1//EN" "http://www.w3.org/Graphics/SVG/1.1/DTD/svg11.dtd">
<svg version="1.1" id="Foreground" xmlns="http://www.w3.org/2000/svg" xmlns:xlink="http://www.w3.org/1999/xlink" x="0px" y="0px"
	 width="177.166px" height="177.166px" viewBox="0 0 177.166 177.166" enable-background="new 0 0 177.166 177.166"
	 xml:space="preserve">
<path fill-rule="evenodd" clip-rule="evenodd" fill="#B22238" d="M81.217,42.728l-0.459-3.201c0,0,1.222-0.458,1.222,0.61
	S81.217,42.728,81.217,42.728z M104.26,109.038c0,0,1.067-2.438,2.9-2.287c1.833,0.153,1.833,0.609,2.595,0.153
	c0.763-0.458,2.441-1.373,2.289-3.049c-0.152-1.677-0.458-4.115-1.679-6.86c-1.221-2.744-1.831-3.963-1.831-3.963
	s-3.968,1.678-6.716,1.983c-2.747,0.304-4.424-0.764-5.035,0.152c-0.61,0.914-1.832,4.267-1.984,5.639
	c-0.153,1.372,0,2.135-0.916,2.135c-0.917,0-1.528,0.458-1.528,0.458s0.306,0.609,2.748,1.676s4.272,1.677,6.257,2.744
	C103.346,108.885,104.26,109.038,104.26,109.038z M111.281,110.104c0,0,0.611-1.067,1.221-1.677
	c0.611-0.609,1.374-1.219,1.374-1.219s0.763,1.829,0.305,2.591s-0.916,1.524-1.679,1.066
	C111.74,110.41,111.281,110.104,111.281,110.104z M115.554,100.195c0,0-0.609-2.591-0.762-4.115
	c-0.153-1.525-0.305-2.134-0.305-2.134l1.374-1.067c0,0,0.306,0.763,0.151,3.202C115.86,98.52,115.554,100.195,115.554,100.195z
	 M110.519,60.869c0,0,1.374,3.201,1.983,5.334c0.611,2.135,1.069,5.946,1.069,5.946s-2.138-1.524-2.29-2.286
	c-0.152-0.762,0.611-0.915-0.61-2.135c-1.219-1.219-2.289-1.98-2.136-2.743c0.153-0.762,0.61-1.067,1.22-2.135
	C110.366,61.782,110.519,60.869,110.519,60.869z M78.164,72.758l2.29-1.372c0,0,0.153,1.219-0.459,1.524
	C79.386,73.216,78.164,72.758,78.164,72.758z M75.8,21.615c0,0,1.449,0.382,2.364,1.449c0.917,1.066,0.917,1.677,1.373,2.058
	c0.458,0.379,1.909,0.685,2.519,1.143c0.611,0.457,1.984,1.524,4.731,4.115c2.748,2.591,5.037,5.106,5.875,7.927
	c0.84,2.819,0.457,4.42,0.916,4.726c0.459,0.304,1.526,1.22,2.06,1.752c0.536,0.534,2.214,2.287,2.366,1.982
	c0.153-0.306,0.077-1.066-0.534-1.448c-0.61-0.382-1.066-1.295-1.144-1.829s0.077-0.687-0.229-1.066
	c-0.305-0.382-0.61-1.297-0.229-1.678c0.382-0.381,1.298-0.458,1.908-0.763c0.61-0.304,1.188-0.42,1.982-0.38
	c1.528,0.076,2.29,1.829,3.359,2.438c1.066,0.61,0.764,0.306,1.221,0.61c0.459,0.305,1.106,0.724,1.258,0.533
	c0.153-0.19,0-0.647,0.153-1.065c0.153-0.42,0.257-0.789,0.229-0.993c-0.076-0.533-1.106-0.838-1.106-1.371
	c0-0.534,0.039-0.839,0.077-1.486c0.039-0.648-0.077-0.916-0.229-1.105c-0.152-0.191-1.133-1.205-0.917-2.02
	c0.307-1.144,1.871-1.067,1.909-1.409c0.038-0.344-0.573-1.678,1.067-2.211c1.642-0.533,2.518-0.724,4.961,1.18
	c2.441,1.907,3.472,4.346,2.136,5.641c-1.336,1.297-1.412,0.267-1.755,0.763c-0.343,0.495-0.724,1.067-0.878,1.829
	c-0.152,0.762,0.039,2.172,0.307,2.782c0.266,0.609,2.136,2.21,2.937,2.628c0.8,0.42,2.365,0.534,2.71,2.135
	c0.342,1.6,0.075,3.124-0.688,5.64c-0.763,2.517-1.755,4.459-2.784,4.459c-1.03,0-1.564-0.686-1.793-0.305s0.495,3.505,0.801,4.915
	c0.305,1.411,2.593,11.585,2.593,11.585s2.177,1.221,2.978,5.146c0.801,3.924,0.763,5.335,0.763,5.335s3.663,2.439,4.273,4.573
	c0.611,2.135-0.456,8.08-0.916,9.147c-0.458,1.066-2.137,2.287-2.137,3.506c0,1.218-1.068,6.097-1.679,7.621
	c-0.609,1.524-1.832,3.201-1.524,3.811c0.304,0.61,0.837,0.992,0.837,0.992H54.357c0,0,0.764-1.372,0.916-1.83
	c0.152-0.458,0.229-1.372,0.611-1.906c0.381-0.534,0.839-1.754,1.295-2.21c0.459-0.457,1.222-2.134,3.208-2.286
	c1.983-0.152,4.502,0,6.408-0.534c1.907-0.533,3.586-1.829,5.036-1.981c1.45-0.152,2.748-0.152,3.358-0.382
	c0.611-0.228,1.526-2.209,2.441-2.361c0.917-0.152,3.587,0.229,6.106-0.076c2.517-0.306,4.809-0.402,5.799-2.441
	c1.297-2.667-0.178-2.781,0.304-4.649c0.612-2.363,1.832-4.191,1.832-4.574c0-0.379-0.151-1.219,0.153-1.676
	c0.305-0.457,0.61-0.609,0.61-1.143c0-0.534-0.152-1.449,0.458-2.744c0.61-1.295,1.067-3.125,1.067-3.125s-2.517-2.287-3.891-3.583
	c-1.375-1.295-2.519-3.353-2.9-4.039c-0.382-0.686-0.916-1.372-0.916-1.372s-0.687,0.457-0.763,1.067
	c-0.077,0.609-0.458,1.523-0.688,2.057c-0.229,0.535-0.304,1.219-0.304,1.219s1.525,1.145,1.067,1.449
	c-0.457,0.306-1.296-0.686-1.678-0.458c-0.382,0.229-0.992,1.449-1.373,1.449c-0.383,0-1.68-0.381-2.138-0.686
	c-0.458-0.306,0-0.306-0.915-0.838c-0.916-0.534-2.976-0.991-3.357-1.295c-0.381-0.305-0.381-0.381-0.612-0.381
	c-0.229,0-0.646-0.191-0.646-0.381c0-0.191-0.077-0.421-0.154-0.724c-0.075-0.306-1.144-1.525-0.838-1.906
	c0.304-0.382,0.646-0.762,1.525-0.61c0.877,0.153,1.375,0.42,1.641,0.305c0.267-0.114,1.526-0.801,2.022-1.105
	c0.495-0.305,0.992-0.457,1.259-0.876c0.267-0.419,0.38-1.181,0.763-1.83c0.381-0.648,0.458-2.171,0.648-3.314
	s0.164-3.076-0.457-3.697c-0.955-0.953-2.672-0.229-3.129-0.419c-0.458-0.189-1.146-0.305-1.794-0.344
	c-0.648-0.037-1.374,0.115-1.641-0.38c-0.267-0.495-0.534-1.105-1.029-1.143c-0.497-0.038-0.497,0-0.84-0.229
	s-0.916-0.496-1.069-0.343c-0.151,0.151-0.457,1.105-0.876,1.257c-0.42,0.153-1.564,0.039-2.099-0.152
	c-0.534-0.191-1.412-0.762-1.298-1.371c0.115-0.61,1.07-3.011,1.07-3.469c0-0.457-0.841-1.371-1.717-3.048
	c-0.878-1.676-1.146-2.667-1.718-3.162c-0.573-0.497-1.595-1.27-1.944-1.182c-0.61,0.152-0.955,0.837-1.528,1.447
	c-0.572,0.61-1.449,0.877-1.525,1.295c-0.076,0.419-0.266,1.258-0.648,1.41c-0.382,0.153-1.107,0.344-1.145,0.764
	c-0.037,0.418,0.115,0.495,0.344,1.295s-0.038,2.591-0.381,2.858c-0.345,0.268-4.428,1.297-4.617,0.838
	c-0.19-0.457,0.687-2.554,0.535-2.935c-0.153-0.379,0.19-0.914,0.457-1.638c0.266-0.724,1.222-2.667,1.832-3.544
	c0.611-0.875,2.823-1.713,3.74-2.783c0.915-1.065,1.755-2.477,2.327-2.628c0.572-0.153,3.356-0.229,4.234,0.229
	c0.877,0.456,1.984,2.743,2.442,3.238c0.458,0.497,1.527,1.335,3.243,2.325c1.716,0.991,1.45,1.029,1.755,0.991
	c0.306-0.038,1.908-1.485,2.671-2.247c0.763-0.763,2.137-2.479,2.67-2.821c0.534-0.342,0.993-0.419,1.07-0.687
	c0.075-0.265-0.382-2.857-0.42-3.925c-0.038-1.066-0.688-2.896-1.031-3.239c-0.343-0.344-1.412-0.267-1.755-1.105
	c-0.342-0.838,0.137-1.95-0.534-2.782c-1.26-1.563-1.488-0.991-1.793-1.753c-0.304-0.763-0.648-2.781-1.068-3.315
	c-0.419-0.533-1.564-1.295-1.755-1.791c-0.191-0.495-0.116-1.144-0.116-1.144s0.725,0.115,1.451,0.344
	c0.725,0.228,0.647,0.456,0.916,0.341c0.268-0.114,0.572-0.495,1.105-0.799c0.536-0.306,1.146-0.648,1.069-0.837
	c-0.077-0.192-0.307-0.801-0.572-1.639C75.875,22.378,75.8,21.615,75.8,21.615z"/>
<g>
	<path fill="#2F2C7E" d="M56.782,6.226c9.911-3.842,20.528-5.949,31.799-5.949c11.071,0,21.36,2.033,31.125,5.745L56.782,6.226z"/>
	<path fill="#2F2C7E" d="M61.395,20.386c8.449-3.381,17.528-5.242,27.186-5.242c9.761,0,19.078,1.9,27.597,5.35l28.498-0.164
		c-3.099-2.544-6.37-4.883-9.798-6.993l-92.581-0.001c-3.43,2.109-6.699,4.446-9.797,6.989L61.395,20.386z"/>
	<path fill="#2F2C7E" d="M138.861,35.005c-2.736-2.561-5.66-4.918-8.764-7.042l22.354-0.438c2.193,2.291,4.26,4.698,6.2,7.214
		L138.861,35.005z"/>
	<path fill="#2F2C7E" d="M150.196,48.512c-1.534-2.349-3.191-4.604-4.976-6.755l18.41,0.133c1.391,2.228,2.681,4.521,3.874,6.875
		L150.196,48.512z"/>
	<path fill="#2F2C7E" d="M157.568,63.16c-0.886-2.398-1.889-4.739-3.01-7.012l16.256-0.036c0.905,2.292,1.715,4.63,2.431,7.012
		L157.568,63.16z"/>
	<path fill="#2F2C7E" d="M18.518,34.741c1.938-2.515,4.006-4.922,6.199-7.212l23.194-0.13c-3.227,2.144-6.27,4.537-9.11,7.15
		L18.518,34.741z"/>
	<path fill="#2F2C7E" d="M9.728,48.645c1.175-2.313,2.446-4.569,3.815-6.759l18.406-0.128c-1.818,2.193-3.507,4.493-5.066,6.891
		L9.728,48.645z"/>
	<path fill="#2F2C7E" d="M3.952,63.032c0.708-2.351,1.51-4.661,2.407-6.924l16.312-0.08c-1.146,2.312-2.169,4.693-3.07,7.136
		L3.952,63.032z"/>
	<path fill="#2F2C7E" d="M0.896,77.409c0.311-2.457,0.717-4.884,1.226-7.273l15.288,0.009c-0.62,2.393-1.115,4.832-1.492,7.312
		L0.896,77.409z"/>
	<path fill="#2F2C7E" d="M15.191,84.45c-0.076,1.363-0.114,2.735-0.114,4.116c0,0.977,0.024,1.946,0.062,2.912L0.246,91.475
		c-0.032-0.966-0.052-1.934-0.052-2.909c0-1.384,0.033-2.76,0.095-4.128L15.191,84.45z"/>
	<path fill="#2F2C7E" d="M1.896,105.877c-0.481-2.418-0.869-4.873-1.147-7.357l14.988-0.077c0.333,2.484,0.798,4.929,1.374,7.326
		L1.896,105.877z"/>
	<path fill="#2F2C7E" d="M161.251,77.457c-0.375-2.48-0.873-4.92-1.492-7.312l15.352,0.285c0.489,2.342,0.879,4.718,1.181,7.124
		L161.251,77.457z"/>
	<path fill="#2F2C7E" d="M176.882,84.481c0.063,1.354,0.089,2.715,0.089,4.084c0,0.967-0.016,1.928-0.045,2.887l-14.894-0.016
		c0.037-0.951,0.055-1.91,0.055-2.872c0-1.38-0.034-2.752-0.11-4.116L176.882,84.481z"/>
	<path fill="#2F2C7E" d="M160.059,105.768c0.576-2.398,1.039-4.84,1.373-7.325l15.007-0.09c-0.278,2.526-0.668,5.02-1.156,7.474
		L160.059,105.768z"/>
	<path fill="#2F2C7E" d="M155.09,119.573c1.083-2.298,2.06-4.357,2.906-6.778l15.606,0.014c-0.682,2.392-1.468,4.744-2.341,7.048
		L155.09,119.573z"/>
	<path fill="#2F2C7E" d="M5.951,119.965c-0.882-2.314-1.674-4.676-2.363-7.079l15.585-0.091c0.848,2.419,1.822,4.781,2.908,7.079
		L5.951,119.965z"/>
	<path fill="#2F2C7E" d="M122.628,153.662c-10.181,5.319-21.767,8.326-34.047,8.326c-12.256,0-23.813-2.997-33.975-8.297
		L122.628,153.662z"/>
	<path fill="#2F2C7E" d="M155.131,119.877c-1.372,2.9-2.935,5.697-4.662,8.374l-123.588,0.231c-1.786-2.749-3.396-5.623-4.807-8.608
		L155.131,119.877z"/>
	<path fill="#2F2C7E" d="M143.922,136.927c-2.701,3.076-5.661,5.927-8.837,8.515l-93.181-0.159c-3.181-2.615-6.142-5.491-8.84-8.597
		L143.922,136.927z"/>
</g>
<g>
	<g>
		<path fill="#B22238" d="M11.674,123.21c0.806-0.419,1.544-0.651,2.218-0.693c0.496-0.03,0.985,0.028,1.467,0.172
			c0.482,0.145,0.897,0.362,1.244,0.652c0.464,0.385,0.865,0.899,1.2,1.543c0.606,1.165,0.729,2.286,0.37,3.362
			s-1.183,1.949-2.471,2.618c-1.277,0.664-2.458,0.837-3.54,0.517c-1.083-0.319-1.925-1.059-2.53-2.222
			c-0.611-1.176-0.739-2.298-0.382-3.366C9.606,124.727,10.414,123.865,11.674,123.21z M12.583,124.829
			c-0.896,0.466-1.468,1.026-1.714,1.679c-0.247,0.655-0.205,1.3,0.126,1.937s0.832,1.04,1.503,1.21
			c0.671,0.169,1.466,0.016,2.383-0.461c0.907-0.471,1.479-1.022,1.719-1.652c0.24-0.629,0.188-1.273-0.154-1.932
			s-0.844-1.071-1.505-1.24C14.279,124.204,13.494,124.355,12.583,124.829z"/>
	</g>
	<g>
		<path fill="#B22238" d="M12.49,134.076l7.418-4.948l0.972,1.458l-2.929,6.34l4.955-3.304l0.928,1.392l-7.418,4.948l-1.002-1.503
			l2.844-6.218l-4.838,3.227L12.49,134.076z"/>
	</g>
	<g>
		<path fill="#B22238" d="M24.444,135.897l2.08,2.551c0.468,0.575,0.782,1.05,0.94,1.423c0.211,0.502,0.283,1.023,0.213,1.561
			c-0.069,0.538-0.262,1.062-0.582,1.573c-0.318,0.51-0.801,1.029-1.449,1.557c-0.569,0.464-1.117,0.793-1.644,0.987
			c-0.644,0.237-1.252,0.322-1.824,0.255c-0.433-0.05-0.884-0.226-1.352-0.531c-0.349-0.228-0.732-0.601-1.153-1.116l-2.141-2.626
			L24.444,135.897z M24.413,138.247l-4.578,3.732l0.849,1.041c0.318,0.39,0.569,0.654,0.754,0.79c0.241,0.18,0.49,0.29,0.747,0.329
			c0.257,0.039,0.579-0.02,0.965-0.179c0.387-0.158,0.847-0.455,1.381-0.891s0.907-0.817,1.115-1.145
			c0.209-0.327,0.325-0.641,0.347-0.941c0.022-0.301-0.045-0.605-0.201-0.911c-0.115-0.231-0.404-0.631-0.868-1.201L24.413,138.247z
			"/>
	</g>
	<g>
		<path fill="#B22238" d="M26.131,145.061c0.638-0.646,1.271-1.093,1.898-1.34c0.463-0.181,0.946-0.276,1.45-0.287
			c0.503-0.01,0.965,0.07,1.384,0.239c0.56,0.224,1.099,0.59,1.616,1.101c0.934,0.923,1.395,1.952,1.383,3.086
			c-0.012,1.135-0.527,2.218-1.548,3.251c-1.012,1.024-2.083,1.55-3.211,1.578c-1.128,0.028-2.158-0.417-3.09-1.338
			c-0.943-0.932-1.408-1.961-1.397-3.086C24.629,147.138,25.133,146.07,26.131,145.061z M27.494,146.321
			c-0.709,0.718-1.082,1.427-1.116,2.125c-0.034,0.699,0.204,1.3,0.714,1.805c0.511,0.505,1.111,0.734,1.802,0.691
			c0.69-0.044,1.4-0.434,2.126-1.169c0.718-0.727,1.095-1.428,1.129-2.1c0.035-0.673-0.211-1.27-0.74-1.792
			c-0.528-0.521-1.131-0.76-1.813-0.718C28.917,145.206,28.215,145.592,27.494,146.321z"/>
	</g>
	<g>
		<path fill="#B22238" d="M30.331,155.187l5.552-6.979l1.409,1.121l-2.465,3.099l5.311-0.835l1.895,1.507l-4.79,0.628l-0.62,6.464
			l-1.822-1.45l0.688-4.801l-2.07,0.257l-1.678,2.109L30.331,155.187z"/>
	</g>
	<g>
		<path fill="#B22238" d="M42.151,153.206l1.51,0.98l-2.631,4.05c-0.417,0.643-0.669,1.071-0.756,1.287
			c-0.133,0.348-0.14,0.693-0.017,1.037c0.123,0.343,0.395,0.651,0.817,0.925c0.428,0.278,0.809,0.401,1.14,0.367
			c0.331-0.034,0.601-0.164,0.811-0.39c0.21-0.227,0.507-0.636,0.892-1.228l2.688-4.137l1.511,0.981l-2.551,3.928
			c-0.583,0.898-1.037,1.505-1.358,1.824c-0.323,0.317-0.676,0.532-1.062,0.645c-0.385,0.112-0.81,0.125-1.276,0.038
			c-0.465-0.087-0.994-0.323-1.586-0.708c-0.714-0.464-1.202-0.898-1.464-1.303c-0.261-0.404-0.414-0.808-0.458-1.21
			c-0.042-0.403-0.004-0.771,0.115-1.104c0.18-0.492,0.542-1.157,1.085-1.994L42.151,153.206z"/>
	</g>
	<g>
		<path fill="#B22238" d="M44.296,165.214l0.749-1.441l6.824-2.972l-3.686-1.916l0.696-1.338l5.791,3.01l-0.646,1.241l-7.109,3.084
			l4.501,2.34l-0.693,1.333L44.296,165.214z"/>
	</g>
	<g>
	</g>
	<g>
		<path fill="#B22238" d="M54.925,170.396l3.015-8.393l2.535,0.911l-0.533,6.271l3.562-5.184l2.542,0.913l-3.015,8.393l-1.574-0.565
			l2.373-6.606l-4.038,6.008l-1.632-0.586l0.713-7.203l-2.373,6.606L54.925,170.396z"/>
	</g>
	<g>
		<path fill="#B22238" d="M72.559,175.511l-1.905-0.452l-0.29-2.15l-3.469-0.824l-1.183,1.801l-1.859-0.441l5.44-7.874l1.853,0.439
			L72.559,175.511z M70.148,171.313l-0.431-3.503l-1.937,2.941L70.148,171.313z"/>
	</g>
	<g>
		<path fill="#B22238" d="M74.721,175.83l0.543-3.713l-2.483-5.583l2.089,0.306l1.565,3.794l2.545-3.193l2.053,0.3l-3.994,4.647
			l-0.542,3.701L74.721,175.83z"/>
	</g>
	<g>
		<path fill="#B22238" d="M80.564,176.569l0.733-8.887l1.795,0.148l-0.733,8.887L80.564,176.569z"/>
	</g>
	<g>
		<path fill="#B22238" d="M83.725,173.87l1.755-0.137c0.094,0.59,0.3,1.026,0.617,1.307c0.317,0.282,0.75,0.429,1.297,0.439
			c0.58,0.011,1.018-0.104,1.317-0.343c0.298-0.239,0.451-0.523,0.457-0.852c0.004-0.211-0.055-0.391-0.175-0.542
			c-0.121-0.15-0.334-0.283-0.641-0.398c-0.209-0.077-0.688-0.216-1.434-0.417c-0.96-0.258-1.632-0.564-2.015-0.92
			c-0.538-0.501-0.8-1.104-0.787-1.81c0.008-0.454,0.146-0.876,0.41-1.267c0.265-0.39,0.641-0.685,1.13-0.882
			c0.488-0.197,1.075-0.29,1.761-0.276c1.119,0.021,1.957,0.283,2.513,0.784c0.556,0.501,0.84,1.162,0.853,1.981l-1.802,0.045
			c-0.068-0.459-0.227-0.792-0.477-0.998c-0.25-0.205-0.628-0.313-1.135-0.322c-0.523-0.01-0.935,0.09-1.234,0.298
			c-0.193,0.135-0.292,0.317-0.296,0.548c-0.004,0.211,0.082,0.393,0.257,0.546c0.224,0.195,0.771,0.404,1.643,0.627
			c0.872,0.224,1.516,0.45,1.931,0.679c0.416,0.229,0.738,0.537,0.968,0.925c0.23,0.388,0.339,0.863,0.329,1.427
			c-0.01,0.511-0.161,0.986-0.453,1.427c-0.292,0.44-0.7,0.764-1.223,0.971c-0.523,0.208-1.172,0.304-1.946,0.289
			c-1.127-0.021-1.988-0.299-2.583-0.832C84.17,175.635,83.824,174.869,83.725,173.87z"/>
	</g>
	<g>
	</g>
	<g>
		<path fill="#B22238" d="M94.725,167.811l1.788-0.216l0.579,4.794c0.092,0.762,0.173,1.252,0.245,1.472
			c0.12,0.354,0.337,0.623,0.651,0.807c0.314,0.185,0.721,0.247,1.22,0.187c0.507-0.062,0.878-0.211,1.11-0.449
			c0.233-0.239,0.357-0.512,0.373-0.821c0.016-0.307-0.018-0.812-0.103-1.512l-0.591-4.897l1.787-0.216l0.562,4.649
			c0.128,1.063,0.17,1.82,0.126,2.271c-0.043,0.45-0.177,0.843-0.4,1.175c-0.223,0.334-0.542,0.616-0.954,0.848
			c-0.414,0.231-0.97,0.39-1.671,0.474c-0.845,0.102-1.499,0.082-1.959-0.061s-0.836-0.354-1.128-0.636
			c-0.291-0.282-0.497-0.588-0.619-0.921c-0.179-0.494-0.328-1.235-0.447-2.225L94.725,167.811z M96.186,167.119l-0.175-1.455
			l1.455-0.176l0.175,1.455L96.186,167.119z M98.782,166.806l-0.176-1.455l1.461-0.176l0.175,1.455L98.782,166.806z"/>
	</g>
	<g>
		<path fill="#B22238" d="M105.362,175.381l-2.06-8.676l1.704-0.404l4.927,4.951l-1.375-5.794l1.627-0.386l2.06,8.676l-1.758,0.417
			l-4.842-4.828l1.344,5.658L105.362,175.381z"/>
	</g>
	<g>
		<path fill="#B22238" d="M111.909,163.982l-0.489-1.542l1.6-0.508l0.49,1.542L111.909,163.982z M114.702,172.988l-2.701-8.498
			l1.715-0.545l2.701,8.498L114.702,172.988z"/>
	</g>
	<g>
		<path fill="#B22238" d="M120.758,170.943l-6.28-7.087l1.812-0.727l4.553,5.283l-0.432-6.938l1.772-0.711l0.358,9.464
			L120.758,170.943z"/>
	</g>
	<g>
		<path fill="#B22238" d="M126.913,168.349l-4.113-7.912l5.867-3.05l0.695,1.338l-4.269,2.219l0.913,1.755l3.972-2.065l0.693,1.332
			l-3.972,2.065l1.12,2.154l4.42-2.298l0.693,1.333L126.913,168.349z"/>
	</g>
	<g>
		<path fill="#B22238" d="M134.763,164.079l-4.948-7.419l3.153-2.103c0.793-0.529,1.414-0.846,1.861-0.952
			c0.448-0.107,0.894-0.061,1.337,0.135c0.443,0.196,0.812,0.515,1.104,0.953c0.371,0.557,0.514,1.126,0.428,1.707
			c-0.085,0.581-0.422,1.135-1.01,1.664c0.45-0.027,0.855,0.002,1.217,0.087s0.914,0.298,1.656,0.636l1.871,0.843l-1.792,1.194
			l-2.16-0.892c-0.77-0.321-1.274-0.509-1.517-0.564c-0.242-0.056-0.461-0.06-0.656-0.008c-0.196,0.05-0.466,0.189-0.81,0.419
			l-0.304,0.202l2.065,3.098L134.763,164.079z M133.406,158.799l1.108-0.739c0.719-0.479,1.147-0.81,1.286-0.99
			c0.138-0.18,0.208-0.377,0.21-0.593c0.002-0.216-0.071-0.436-0.219-0.658c-0.167-0.249-0.368-0.407-0.603-0.471
			s-0.489-0.037-0.758,0.085c-0.133,0.064-0.503,0.299-1.11,0.704l-1.169,0.779L133.406,158.799z"/>
	</g>
	<g>
		<path fill="#B22238" d="M140.449,156.808l1.235-1.253c0.458,0.384,0.899,0.578,1.323,0.582c0.425,0.006,0.846-0.167,1.267-0.518
			c0.445-0.372,0.702-0.747,0.77-1.123c0.068-0.377-0.003-0.692-0.213-0.944c-0.135-0.161-0.298-0.26-0.487-0.294
			c-0.19-0.034-0.438,0.006-0.745,0.12c-0.209,0.079-0.661,0.287-1.356,0.625c-0.894,0.435-1.603,0.644-2.125,0.625
			c-0.734-0.025-1.328-0.309-1.78-0.85c-0.291-0.349-0.465-0.758-0.521-1.226c-0.056-0.469,0.036-0.938,0.275-1.407
			c0.239-0.47,0.622-0.924,1.148-1.364c0.859-0.717,1.663-1.069,2.412-1.055c0.749,0.013,1.396,0.326,1.944,0.937l-1.331,1.215
			c-0.354-0.303-0.691-0.449-1.015-0.441s-0.679,0.175-1.068,0.5c-0.401,0.335-0.647,0.681-0.736,1.035
			c-0.058,0.229-0.013,0.431,0.135,0.609c0.135,0.161,0.319,0.243,0.552,0.244c0.297,0.001,0.848-0.201,1.653-0.603
			c0.805-0.403,1.438-0.654,1.902-0.753c0.464-0.1,0.91-0.079,1.337,0.063c0.428,0.142,0.822,0.429,1.183,0.862
			c0.328,0.393,0.526,0.851,0.594,1.375c0.068,0.524-0.027,1.037-0.286,1.536c-0.26,0.5-0.687,0.998-1.281,1.494
			c-0.865,0.723-1.697,1.078-2.494,1.065C141.942,157.85,141.179,157.499,140.449,156.808z"/>
	</g>
	<g>
		<path fill="#B22238" d="M142.92,146.087l-1.123-1.164l1.208-1.166l1.123,1.164L142.92,146.087z M149.419,152.919l-6.191-6.417
			l1.295-1.25l6.191,6.417L149.419,152.919z"/>
	</g>
	<g>
		<path fill="#B22238" d="M153.721,148.599l-5.512-4.951l-1.768,1.969l-1.122-1.007l4.735-5.272l1.122,1.007l-1.764,1.964
			l5.512,4.95L153.721,148.599z"/>
	</g>
	<g>
		<path fill="#B22238" d="M157.938,143.872l-7.173-5.298l3.928-5.318l1.213,0.896l-2.858,3.87l1.591,1.175l2.66-3.601l1.208,0.892
			l-2.66,3.601l1.953,1.442l2.959-4.007l1.208,0.893L157.938,143.872z"/>
	</g>
	<g>
		<path fill="#B22238" d="M160.452,135.624l0.754-1.591c0.559,0.213,1.039,0.251,1.441,0.116c0.403-0.134,0.744-0.437,1.025-0.906
			c0.298-0.497,0.417-0.936,0.358-1.313c-0.059-0.378-0.229-0.652-0.512-0.821c-0.181-0.108-0.367-0.148-0.557-0.118
			s-0.412,0.149-0.664,0.357c-0.171,0.144-0.529,0.488-1.075,1.036c-0.701,0.704-1.302,1.135-1.801,1.289
			c-0.702,0.218-1.356,0.145-1.96-0.218c-0.39-0.233-0.688-0.563-0.895-0.987s-0.274-0.897-0.202-1.419
			c0.071-0.521,0.283-1.077,0.636-1.665c0.575-0.96,1.219-1.557,1.931-1.79c0.711-0.232,1.426-0.15,2.144,0.246l-0.858,1.585
			c-0.433-0.17-0.8-0.197-1.104-0.083c-0.301,0.114-0.583,0.389-0.844,0.823c-0.269,0.449-0.387,0.855-0.355,1.22
			c0.02,0.234,0.129,0.411,0.328,0.53c0.181,0.108,0.382,0.125,0.602,0.048c0.281-0.096,0.734-0.467,1.362-1.112
			c0.628-0.645,1.145-1.09,1.549-1.337c0.406-0.247,0.834-0.373,1.284-0.379c0.451-0.006,0.918,0.135,1.401,0.425
			c0.439,0.263,0.777,0.631,1.012,1.104c0.237,0.473,0.316,0.987,0.234,1.544c-0.08,0.557-0.32,1.167-0.718,1.832
			c-0.58,0.967-1.248,1.575-2.005,1.825C162.204,136.117,161.366,136.036,160.452,135.624z"/>
	</g>
	<g>
		<path fill="#B22238" d="M159.223,124.696l-1.443-0.729l0.756-1.499l1.443,0.729L159.223,124.696z M167.611,129.003l-7.961-4.017
			l0.811-1.607l7.961,4.017L167.611,129.003z"/>
	</g>
</g>
</svg>
